<svg height="814.909" width="1000" xmlns="http://www.w3.org/2000/svg"><g transform="matrix(4.8056804 0 0 4.8056804 -5.515576 -2.08036)"><path d="m1.14772 141.389 6.70671-3.42824v6.55832l-6.70671 2.98168z"/><path d="m1.14772 15.7315 6.70671-3.42824v6.55971l-6.70671 2.9803v-6.11176"/><path d="m1.14772 78.3372 6.70671-3.27985v6.55693l-6.70671 2.98307z"/><path d="m109.96 10.9622v146.377c31.3021-18.1855 64.5445-16.3965 99.2748.44656v-145.183c-34.433-16.3981-67.377-15.5036-99.275-1.6408"/><path d="m15.9036 146.308 8.64411-5.21725v9.24044l-8.64411 4.77209z"/><path d="m15.9036 20.6506 8.64411-5.21587v9.09206l-8.64411 4.9177z"/><path d="m15.9036 83.4047 8.64411-5.21726v9.24184l-8.64411 4.91908z"/><path d="m32.0019 100.994 11.9254-5.36704v-10.8825l-11.9254 5.66658v10.5829"/><path d="m32.0019 163.896 11.9254-5.36565v-10.8811l-11.9254 5.66382v10.5829"/><path d="m32.0019 38.2398 11.9254-5.36565v-10.8811l-11.9254 5.66381v10.5829"/><path d="m49.1459 152.569 14.6061-6.85649v14.6075l-14.6061 7.00627v-14.7573"/><path d="m49.1459 26.9121 14.6061-6.85788v14.6075l-14.6061 7.00765v-14.7573"/><path d="m49.1459 89.8146 14.6061-6.85648v14.6075l-14.6061 7.00627v-14.7573"/><path d="m67.6296 153.313 17.1398-8.64411v16.6947l-17.1398 8.64134v-16.6919"/><path d="m67.6296 27.6569 17.1398-8.64689v16.696l-17.1398 8.6455v-16.6947"/><path d="m67.6296 90.4109 17.1398-8.6455v16.6947l-17.1398 8.79527v-16.8444"/><path d="m88.4958 105.317v18.3353l18.4837-9.54139v-17.886l-18.4837 9.09206"/><path d="m88.4958 126.781v18.4823l18.4837-9.53723v-17.8873l-18.4837 8.94229"/><path d="m88.4958 147.948v18.4837l18.4837-9.6884v-17.7403l-18.4837 8.94505"/><path d="m88.4958 21.2469v18.4837l18.4837-9.6884v-17.7389l-18.4837 8.94367"/><path d="m88.4958 42.4127v18.4837l18.4837-9.6884v-17.8873l-18.4837 9.09206"/><path d="m88.4958 63.2818v18.4837l18.4837-9.54v-17.8873l-18.4837 8.94367"/><path d="m88.4958 84.4489v18.4837l18.4837-9.68839v-17.7403l-18.4837 8.94506"/></g><g fill="#00f" transform="matrix(4.8056804 0 0 4.8056804 -5.515576 -2.08036)"><path d="m1.14772 120.224 6.70671-3.27985v6.40993l-6.70671 2.98168z"/><path d="m1.14772 99.8025 6.70671-3.27985v6.40992l-6.70671 2.9803z"/><path d="m109.811 91.9018c12.2221-5.96337 23.253-8.6455 33.2409-9.39022v44.1192c-11.7756 2.08856-23.1046 5.22003-33.2409 9.98933v-44.7183"/><path d="m15.9036 104.867 8.64411-5.21448v9.09206l-8.64411 4.91909z"/><path d="m15.9036 125.141 8.64411-5.21587v9.24045l-8.64411 4.91909z"/><path d="m32.0019 122.459 11.9254-5.51542v-10.8811l-11.9254 5.66381v10.7327"/><path d="m32.0019 142.88 11.9254-5.51543v-10.8811l-11.9254 5.6652v10.7313"/><path d="m49.1459 111.28 14.6061-7.00765v14.7586l-14.6061 7.00488v-14.7559"/><path d="m49.1459 131.553 14.6061-7.00766v14.7586l-14.6061 6.8551v-14.6061"/><path d="m67.6296 111.726 17.1398-8.64549v16.6947l-17.1398 8.79527v-16.8444"/><path d="m67.6296 132.149 17.1398-8.64827v16.696l-17.1398 8.79389v-16.8417"/></g><path d="m744.26187 92.86787v227.07176h63.04765c27.93162 0 73.77776 14.32901 94.55176 22.20667v-224.21238c-52.29542-22.20032-105.28765-30.08452-157.59748-25.06595" fill="#008000"/><g fill="#f00" transform="matrix(4.8056804 0 0 4.8056804 -5.515576 -2.08036)"><path d="m1.14772 36.8987 6.70671-3.27985v6.55832l-6.70671 2.98168z"/><path d="m1.14772 57.17 6.70671-3.12869v6.55693l-6.70671 2.83191z"/><path d="m109.811 31.3833c13.1166-5.81359 23.8493-8.94367 33.2409-9.54v46.2092c-11.1792.893119-22.2101 4.32275-33.2409 9.39023v-46.0594"/><path d="m15.9036 41.9662 8.64411-5.21587v9.24045l-8.64411 4.7707z"/><path d="m15.9036 62.2389 8.64411-5.21726v9.24184l-8.64411 4.9177z"/><path d="m32.0019 59.5553 11.9254-5.36565v-10.8811l-11.9254 5.66381v10.5829"/><path d="m32.0019 79.828 11.9254-5.36565v-11.0322l-11.9254 5.81359v10.5843"/><path d="m49.1459 48.3747 14.6061-7.00349v14.7559l-14.6061 7.00627v-14.7586"/><path d="m49.1459 68.6474 14.6061-6.85649v14.6089l-14.6061 7.00488v-14.7573"/><path d="m67.6296 48.9724 17.1398-8.6455v16.6947l-17.1398 8.6455z"/><path d="m67.6296 69.2437 17.1398-8.6455v16.696l-17.1398 8.64411v-16.6947"/></g><path d="m744.26187 385.12677v218.48112c60.89518-2.86582 107.45454 6.45139 157.59941 22.92642v-220.6336c-52.29542-20.77591-105.28765-27.22081-157.59748-20.77591" fill="#ff0"/></svg>